<svg xmlns="http://www.w3.org/2000/svg" viewBox="0 0 48 60" x="0px" y="0px"><path d="M9.93,30.17a5.43,5.43,0,0,0,.1,1A1,1,0,0,0,11,32h11a1,1,0,0,0,1-.81,5.48,5.48,0,0,0,.11-1,6,6,0,0,0-3.67-5.42A4.41,4.41,0,0,0,21,21.43a4.5,4.5,0,0,0-9,0,4.42,4.42,0,0,0,1.55,3.34A6,6,0,0,0,9.93,30.17Z"/><path d="M41,20a1,1,0,0,0,1-1V16a4,4,0,0,0-4-4H10a4,4,0,0,0-4,4V33a4,4,0,0,0,4,4H38a4,4,0,0,0,4-4V24a1,1,0,0,0-2,0v9a2,2,0,0,1-2,2H10a2,2,0,0,1-2-2V16a2,2,0,0,1,2-2H38a2,2,0,0,1,2,2v3A1,1,0,0,0,41,20Z"/><path d="M37,18H24a1,1,0,0,0,0,2H37a1,1,0,0,0,0-2Z"/><path d="M24,24h9a1,1,0,0,0,0-2H24a1,1,0,0,0,0,2Z"/><path d="M25,28H37a1,1,0,0,0,0-2H25a1,1,0,0,0,0,2Z"/><text x="0" y="63" fill="#000000" font-size="5px" font-weight="bold" font-family="'Helvetica Neue', Helvetica, Arial-Unicode, Arial, Sans-serif">Created by Daniel T.</text><text x="0" y="68" fill="#000000" font-size="5px" font-weight="bold" font-family="'Helvetica Neue', Helvetica, Arial-Unicode, Arial, Sans-serif">from the Noun Project</text></svg>